# xmcd CD database file
#
# Track frame offsets:
#	150
#	21012
#	44780
#	65102
#	86470
#	106772
#	128022
#	147997
#	166735
#	187355
#	210740
#
# Disc length: 3471 seconds
#
# Revision: 1
# Processed by: cddbd v1.4PL0 Copyright (c) Steve Scherf et al.
# Submitted via: CDex 1.50
#
DISCID=9f0d8d0b
DTITLE=周傳雄 - 心出發
DYEAR=1992
DGENRE=Rock
TTITLE0=台北的寂寞
TTITLE1=哈薩雅琪
TTITLE2=不要問我分手號怎麼過
TTITLE3=寄給你一朵玫瑰
TTITLE4=我也許是個笑話
TTITLE5=隱藏
TTITLE6=告訴我你不愛我
TTITLE7=捨不得你走
TTITLE8=掏了心傷了心
TTITLE9=陪著我一直到世界的盡頭
TTITLE10=心出發
EXTD=YEAR: 1992
EXTT0=
EXTT1=
EXTT2=
EXTT3=
EXTT4=
EXTT5=
EXTT6=
EXTT7=
EXTT8=
EXTT9=
EXTT10=
PLAYORDER=
